<?xml version="1.0" standalone="no"?>
<!DOCTYPE svg PUBLIC "-//W3C//DTD SVG 20010904//EN"
 "http://www.w3.org/TR/2001/REC-SVG-20010904/DTD/svg10.dtd">
<svg version="1.0" xmlns="http://www.w3.org/2000/svg"
 width="256.000000pt" height="256.000000pt" viewBox="0 0 256.000000 256.000000"
 preserveAspectRatio="xMidYMid meet">

<g transform="translate(0.000000,256.000000) scale(0.100000,-0.100000)"
fill="#000000" stroke="none">
<path d="M730 2450 c-70 -24 -133 -90 -155 -163 -19 -64 -19 -80 1 -148 15
-52 34 -72 417 -456 l401 -403 -401 -403 c-383 -384 -402 -404 -417 -456 -20
-68 -20 -84 0 -150 22 -74 91 -144 163 -165 68 -20 84 -20 152 0 52 15 73 35
548 507 552 551 541 537 541 668 0 60 -5 85 -25 125 -18 37 -145 169 -517 541
-474 472 -495 492 -547 507 -69 20 -93 20 -161 -4z"/>
</g>
</svg>
