<?xml version="1.0" encoding="UTF-8"?>
<svg version="1.1" xmlns="http://www.w3.org/2000/svg" width="512" height="512">
<path d="M0 0 C10.38718334 9.66585116 13.93240167 20.98984347 14.43412781 34.81419373 C14.49187126 36.73341393 14.49187126 36.73341393 14.55078125 38.69140625 C14.57159571 39.37495241 14.59241016 40.05849857 14.61385536 40.76275826 C15.36825454 66.58471989 15.18734943 92.43485883 15.18511117 118.26575816 C15.185463 124.24069102 15.19712318 130.21556568 15.2110464 136.19048017 C15.22414878 142.02565217 15.22948597 147.86079832 15.22884732 153.6959849 C15.22859448 157.15104513 15.23133029 160.60603383 15.24202538 164.06107903 C15.25184367 167.88966409 15.24894313 171.71804234 15.24291992 175.54663086 C15.24853943 176.66507889 15.25415894 177.78352692 15.25994873 178.93586731 C15.20649732 192.3351676 12.63382162 206.03469205 3 216 C-8.29307702 225.70529817 -19.74745044 227.59893558 -34.22070312 227.48583984 C-35.83007617 227.48798995 -37.43944768 227.49187393 -39.04881287 227.49734497 C-43.38982614 227.50697701 -47.73042334 227.49181202 -52.07138634 227.47143888 C-56.63193602 227.45376564 -61.19247481 227.45739497 -65.75305176 227.4581604 C-73.40916836 227.45629184 -81.06512569 227.43898895 -88.72119141 227.41162109 C-97.5502455 227.38017514 -106.37912539 227.36962522 -115.20823145 227.3710922 C-124.64046915 227.3724473 -134.07264045 227.35854228 -143.50485802 227.34019899 C-146.20852795 227.33595355 -148.91218703 227.33451899 -151.61585999 227.33372116 C-155.87757202 227.33169928 -160.13914013 227.31938475 -164.40080452 227.29938889 C-165.95713989 227.29359045 -167.51349183 227.29107758 -169.06983757 227.29224396 C-182.77083551 227.29862174 -196.74098283 227.15175721 -207.10546875 216.921875 C-213.58183827 209.02318979 -217.78914464 200.11691626 -216.78125 189.75 C-215.29100649 181.49634366 -211.30759221 174.51914319 -205 169 C-204.278125 168.319375 -203.55625 167.63875 -202.8125 166.9375 C-195.25295636 161.72981438 -187.6929229 160.37298699 -178.671875 160.25390625 C-177.50211121 160.22518936 -176.33234741 160.19647247 -175.12713623 160.16688538 C-154.35592103 159.74204085 -133.5682309 159.89128939 -112.79406738 159.93133545 C-106.8262569 159.94171586 -100.85844198 159.94616404 -94.890625 159.95117188 C-83.26040525 159.96177517 -71.63020486 159.9787559 -60 160 C-60.00276538 159.3186178 -60.00553076 158.6372356 -60.00837994 157.93520546 C-60.07474947 141.32476696 -60.12433381 124.71437068 -60.15543652 108.10383034 C-60.17087889 100.07096202 -60.19191786 92.03818244 -60.22631836 84.00537109 C-60.25630153 77.00068041 -60.2755941 69.99605402 -60.28226548 62.99130094 C-60.28616271 59.28530436 -60.29526625 55.57949165 -60.31719017 51.87355423 C-60.34151607 47.72763299 -60.3419643 43.58202762 -60.34057617 39.43603516 C-60.351362 38.21898895 -60.36214783 37.00194275 -60.3732605 35.74801636 C-60.32225138 21.63213144 -55.85948003 10.39391631 -46.23828125 0.01171875 C-32.54767429 -12.29310251 -13.9546984 -10.98561364 0 0 Z " fill="#E3E3FE" transform="translate(350,103)"/>
<path d="M0 0 C0.804375 0.53625 1.60875 1.0725 2.4375 1.625 C3.26121094 2.16833984 3.26121094 2.16833984 4.1015625 2.72265625 C5.4441507 3.62600263 6.77098506 4.55297243 8.0859375 5.49609375 C8.82070312 6.01300781 9.55546875 6.52992187 10.3125 7.0625 C11.32763672 7.79146484 11.32763672 7.79146484 12.36328125 8.53515625 C19.63818014 12.57676674 26.33652886 13.42287262 34.5625 13.1875 C35.47580078 13.17396484 36.38910156 13.16042969 37.33007812 13.14648438 C39.55403259 13.11155315 41.77667952 13.06251586 44 13 C47.9024859 40.31096687 41.55280686 74.74961564 25.38134766 97.40307617 C18.65222469 106.2911152 10.65807827 113.45554766 1 119 C-22.07180592 104.98601418 -32.80723874 84.76389974 -39.06958008 59.3671875 C-42.09288828 46.11844401 -46.41688358 26.25065075 -42 13 C-40.74445313 13.03480469 -39.48890625 13.06960937 -38.1953125 13.10546875 C-23.908528 13.38952012 -14.44664353 12.24132688 -3 3 C-1.98123088 2.0191282 -0.97305164 1.02624096 0 0 Z " fill="#E3E3FE" transform="translate(211,115)"/>
<path d="M0 0 C2.94895082 1.33636305 5.09700119 2.82141931 7.43359375 5.0546875 C8.07578857 5.6633667 8.7179834 6.2720459 9.37963867 6.89916992 C10.05873291 7.55119385 10.73782715 8.20321777 11.4375 8.875 C12.87980221 10.24391761 14.32251581 11.61240189 15.765625 12.98046875 C16.48169922 13.66157715 17.19777344 14.34268555 17.93554688 15.04443359 C20.82882503 17.78510981 23.75407791 20.48992867 26.6875 23.1875 C27.21214844 23.67081787 27.73679687 24.15413574 28.27734375 24.65209961 C29.32725435 25.61921633 30.3773826 26.58609682 31.42773438 27.55273438 C35.16669465 30.99443569 38.90092009 34.4412626 42.6328125 37.890625 C45.06089015 40.13482318 47.49442217 42.37297974 49.9296875 44.609375 C51.22403984 45.80199488 52.51831251 46.99470123 53.8125 48.1875 C54.42988037 48.75267334 55.04726074 49.31784668 55.68334961 49.90014648 C57.14120112 51.24651156 58.57345507 52.62050752 60 54 C60 54.33 60 54.66 60 55 C54.56499211 56.13239869 49.29839259 56.14115251 43.77539062 56.12939453 C42.76002731 56.13114685 41.744664 56.13289917 40.6985321 56.13470459 C37.35108721 56.13909626 34.0036954 56.13619454 30.65625 56.1328125 C28.32507314 56.13348631 25.99389635 56.13445698 23.66271973 56.13571167 C18.78051076 56.137185 13.89832011 56.13504576 9.01611328 56.13037109 C2.76166577 56.12467404 -3.49273882 56.12795499 -9.74718475 56.13394356 C-14.55987877 56.13755897 -19.37256263 56.13640606 -24.18525696 56.13381577 C-26.4913178 56.13314922 -28.79737957 56.13396542 -31.10343933 56.13629532 C-34.3274479 56.13883789 -37.5513872 56.13495853 -40.77539062 56.12939453 C-42.20163506 56.13243088 -42.20163506 56.13243088 -43.6566925 56.13552856 C-48.21986907 56.12095729 -52.5100129 55.93550104 -57 55 C-52.93085548 50.04219174 -48.60259409 45.57880719 -43.875 41.25 C-43.21612793 40.64075684 -42.55725586 40.03151367 -41.87841797 39.40380859 C-37.0260436 34.92225655 -32.14799539 30.46835782 -27.265625 26.01953125 C-24.66350443 23.63038679 -22.10257868 21.20042081 -19.546875 18.76171875 C-18.77456543 18.02679199 -18.00225586 17.29186523 -17.20654297 16.53466797 C-15.67027714 15.0704699 -14.13794227 13.6021346 -12.60986328 12.12939453 C-11.91103027 11.46407715 -11.21219727 10.79875977 -10.4921875 10.11328125 C-9.86683105 9.51298096 -9.24147461 8.91268066 -8.59716797 8.29418945 C-7 7 -7 7 -5 7 C-4.67 6.01 -4.34 5.02 -4 4 C-2.70644173 2.62804426 -1.37701298 1.28817344 0 0 Z " fill="#E3E3FE" transform="translate(247,346)"/>
</svg>
