<?xml version="1.0" standalone="no"?>
<!DOCTYPE svg PUBLIC "-//W3C//DTD SVG 20010904//EN"
 "http://www.w3.org/TR/2001/REC-SVG-20010904/DTD/svg10.dtd">
<svg version="1.0" xmlns="http://www.w3.org/2000/svg"
 width="128.000000pt" height="128.000000pt" viewBox="0 0 128.000000 128.000000"
 preserveAspectRatio="xMidYMid meet">

<g transform="translate(0.000000,128.000000) scale(0.100000,-0.100000)"
fill="#E4E4FF" stroke="none">
<path d="M522 1139 c-46 -14 -119 -89 -147 -152 -45 -97 -58 -172 -52 -287 12
-218 96 -415 257 -605 28 -33 55 -60 60 -60 13 0 103 108 157 189 54 81 113
212 139 311 28 108 26 299 -4 388 -30 84 -76 153 -131 192 -39 28 -49 30 -144
32 -56 1 -117 -2 -135 -8z m249 -129 c46 -25 72 -150 47 -225 -17 -52 -51 -64
-178 -64 -127 0 -161 12 -178 64 -25 73 1 198 45 224 23 14 239 14 264 1z"/>
</g>
</svg>
