<svg xmlns="http://www.w3.org/2000/svg" width="128" height="128" viewBox="0 0 128 128" version="1.1">
<path d="M 40.575 15.236 C 34.000 19.000, 32.000 26.088, 32.000 46.029 C 32.000 63.737, 32.253 66.742, 34.488 75.550 C 38.552 91.570, 47.878 108.479, 59.750 121.348 L 64.000 125.955 L 68.250 121.348 C 80.122 108.479, 89.448 91.570, 93.512 75.550  C 95.743 66.755, 96.000 63.727, 96.000 46.187  C 96.000 26.240, 94.000 19.000, 87.425 15.236 C 80.000 11.000, 48.000 11.000, 40.575 15.236 Z" stroke="none" fill="#E4E4FF" />
<path d="M 51.500 24.409 C 50.044 25.866, 49.035 27.607, 49.259 28.278 C 49.884 30.154, 52.953 30.352, 54.847 28.638 C 56.030 27.568, 56.994 27.396, 58.023 28.071 C 59.232 28.865, 58.819 29.600, 55.750 32.118 C 51.816 35.345, 50.875 38.821, 53.373 40.895 C 55.405 42.581, 58 41.141, 58 38.328 C 58 36.825, 59.165 34.890, 61 33.347 C 66.077 29.075, 64.444 23.433, 57.820 22.358 C 54.736 21.858, 53.722 22.187, 51.500 24.409 M 68.557 30.223 C 66.741 32.815, 66.377 45.967, 68.035 49.066 C 68.819 50.531, 70.144 51, 73.500 51 C 79.129 51, 80 49.498, 80 39.788 C 80 30.785, 78.465 28, 73.500 28 C 71.134 28, 69.644 28.670, 68.557 30.223 M 54.250 43.731 C 52.806 44.234, 52.563 47.612, 53.910 48.444 C 55.456 49.400, 58 47.880, 58 46 C 58 44.076, 56.266 43.027, 54.250 43.731 M 49.036 54.956 C 46.973 56.262, 48.701 60.701, 52.323 63.398 C 54.530 65.042, 56.926 65.572, 63.323 65.833 C 70.582 66.128, 71.891 65.900, 74.987 63.802 C 79.135 60.990, 81.209 56.377, 78.964 54.956 C 77.057 53.750, 50.943 53.750, 49.036 54.956 M 56.635 72.073 C 55.186 73.212, 54 75.012, 54 76.073 C 54 77.847, 54.792 78, 64 78 C 73.208 78, 74 77.847, 74 76.073 C 74 72.841, 69.322 70, 64 70 C 60.729 70, 58.457 70.639, 56.635 72.073" stroke="none" fill="#DCA36E" fill-rule="evenodd"/>
</svg>