<svg xmlns="http://www.w3.org/2000/svg" width="128" height="128" viewBox="0 0 128 128" version="1.1">
<path d="M 50.418 14.479 C 45.518 16.921, 40.063 22.913, 36.704 29.544 C 31.057 40.690, 30.160 58.785, 34.429 75.429 C 38.584 91.627, 47.872 108.472, 59.750 121.348 L 64 125.955 68.250 121.348 C 93.256 94.241, 103.467 53.567, 91.296 29.544 C 87.937 22.913, 82.482 16.921, 77.582 14.479 C 70.414 10.907, 57.586 10.907, 50.418 14.479 Z" stroke="none" fill="#E4E4FF" fill-rule="evenodd"/>
<path d="M 61.238 27.162 C 60.466 27.934, 60 31.333, 60 36.200 L 60 44 52.691 44 C 44.747 44, 41.544 45.387, 42.153 48.566 C 42.479 50.275, 43.541 50.534, 51.261 50.789 L 60 51.078 60 58.848 C 60 67.262, 61.330 70.466, 64.566 69.849 C 66.261 69.525, 66.562 68.368, 67 60.490 L 67.500 51.500 76.490 51 C 84.368 50.562, 85.525 50.261, 85.849 48.566 C 86.466 45.330, 83.262 44, 74.848 44 L 67.078 44 66.789 35.250 C 66.528 27.359, 66.303 26.472, 64.488 26.212 C 63.382 26.053, 61.919 26.481, 61.238 27.162" stroke="none" fill="#9B9BA7" fill-rule="evenodd"/>
<!-- <path d="M 50.418 14.479 C 45.518 16.921, 40.063 22.913, 36.704 29.544 C 31.057 40.690, 30.160 58.785, 34.429 75.429 C 38.584 91.627, 47.872 108.472, 59.750 121.348 L 64 125.955 68.250 121.348 C 93.256 94.241, 103.467 53.567, 91.296 29.544 C 87.937 22.913, 82.482 16.921, 77.582 14.479 C 70.414 10.907, 57.586 10.907, 50.418 14.479 M 61.238 27.162 C 60.466 27.934, 60 31.333, 60 36.200 L 60 44 52.691 44 C 44.747 44, 41.544 45.387, 42.153 48.566 C 42.479 50.275, 43.541 50.534, 51.261 50.789 L 60 51.078 60 58.848 C 60 67.262, 61.330 70.466, 64.566 69.849 C 66.261 69.525, 66.562 68.368, 67 60.490 L 67.500 51.500 76.490 51 C 84.368 50.562, 85.525 50.261, 85.849 48.566 C 86.466 45.330, 83.262 44, 74.848 44 L 67.078 44 66.789 35.250 C 66.528 27.359, 66.303 26.472, 64.488 26.212 C 63.382 26.053, 61.919 26.481, 61.238 27.162" stroke="none" fill="#E4E4FF" fill-rule="evenodd"/> -->
</svg>