<?xml version="1.0" standalone="no"?>
<!DOCTYPE svg PUBLIC "-//W3C//DTD SVG 20010904//EN"
 "http://www.w3.org/TR/2001/REC-SVG-20010904/DTD/svg10.dtd">
<svg version="1.0" xmlns="http://www.w3.org/2000/svg"
 width="512.000000pt" height="512.000000pt" viewBox="0 0 512.000000 512.000000"
 preserveAspectRatio="xMidYMid meet">

<g transform="translate(0.000000,512.000000) scale(0.100000,-0.100000)"
fill="#000000" stroke="none">
<path d="M3545 4989 c-119 -29 -179 -63 -271 -155 -88 -86 -131 -157 -167
-274 -19 -63 -20 -94 -22 -1078 -1 -621 -5 -1016 -11 -1022 -6 -6 -378 -12
-944 -15 -821 -5 -945 -8 -1015 -22 -44 -10 -86 -23 -93 -30 -7 -7 -18 -13
-24 -13 -17 0 -109 -61 -144 -95 -26 -26 -59 -75 -103 -154 -7 -13 -17 -49
-23 -80 -5 -31 -12 -71 -15 -89 -8 -50 14 -148 52 -228 41 -86 135 -178 227
-225 126 -64 77 -62 1443 -62 1111 0 1247 2 1308 17 191 45 343 188 413 384
33 94 45 209 42 417 -2 99 -2 495 -1 880 1 385 -2 849 -6 1030 -10 355 -12
368 -74 506 -36 78 -169 218 -248 259 -47 24 -211 72 -239 69 -3 0 -41 -9 -85
-20z"/>
<path d="M1854 4649 c-33 -35 -122 -97 -180 -127 -75 -38 -253 -60 -361 -44
l-61 8 -8 -95 c-7 -100 15 -404 37 -498 57 -249 84 -342 118 -412 16 -33 31
-70 34 -83 5 -20 52 -95 133 -212 26 -37 155 -161 202 -194 136 -96 128 -95
207 -32 28 22 74 58 103 81 55 42 152 154 202 232 42 67 110 201 110 218 0 8
4 19 9 24 10 13 33 84 64 205 56 216 90 533 73 687 l-8 83 -27 -8 c-14 -4 -75
-7 -136 -6 -120 1 -191 17 -285 64 -49 25 -159 111 -168 133 -7 15 -29 6 -58
-24z"/>
<path d="M2379 1132 c-80 -81 -351 -336 -380 -357 -45 -33 -428 -404 -421
-409 28 -15 1727 -12 1737 4 2 3 -44 51 -102 106 -278 260 -327 305 -423 394
-57 52 -149 138 -204 190 -56 52 -107 101 -114 108 -23 21 -46 13 -93 -36z"/>
</g>
</svg>
