<?xml version="1.0" encoding="UTF-8"?>
<svg version="1.1" xmlns="http://www.w3.org/2000/svg" width="128" height="128">
<path d="M0 0 C3.0625 1.875 3.0625 1.875 5 5 C5.84777472 8.55577455 5.77391376 11.43469764 5 15 C3.65357494 16.99341774 3.65357494 16.99341774 1.91191101 18.85635376 C1.27593679 19.54365192 0.63996258 20.23095009 -0.01528358 20.93907547 C-0.99771821 21.95923311 -0.99771821 21.95923311 -2 23 C-2.5879302 23.61453411 -3.1758604 24.22906822 -3.78160667 24.86222458 C-5.61806605 26.75387665 -7.47566421 28.62224472 -9.34057617 30.48583984 C-10.03743027 31.18605255 -10.73428436 31.88626526 -11.45225525 32.60769653 C-13.7298802 34.89473238 -16.01117389 37.1780625 -18.29296875 39.4609375 C-19.8877121 41.05889755 -21.48238153 42.65693137 -23.07698059 44.2550354 C-26.40623731 47.59025665 -29.73753091 50.9234281 -33.07006836 54.25537109 C-37.34232789 58.52752853 -41.60763848 62.80655271 -45.87125683 67.08733177 C-49.15604416 70.3832206 -52.44534911 73.67457171 -55.73595619 76.9646492 C-57.31124743 78.54112098 -58.88491623 80.1192157 -60.45693016 81.69895554 C-62.64911492 83.90091343 -64.84751521 86.09647411 -67.04760742 88.29052734 C-67.69548218 88.94402161 -68.34335693 89.59751587 -69.01086426 90.27081299 C-69.9126667 91.1663237 -69.9126667 91.1663237 -70.83268738 92.07992554 C-71.35086123 92.59864416 -71.86903509 93.11736279 -72.40291119 93.65180016 C-76.0130717 96.69935631 -79.09763618 97.25131173 -83.8046875 97.4609375 C-89.96945913 96.16655484 -94.63638099 90.64506282 -98.89453125 86.3359375 C-99.52735519 85.70265533 -100.16017914 85.06937317 -100.81217957 84.41690063 C-102.13978069 83.0862941 -103.4649665 81.75327375 -104.7878418 80.41796875 C-106.81828331 78.36916438 -108.85672032 76.32858154 -110.89648438 74.2890625 C-112.18797472 72.99266025 -113.47900681 71.69580128 -114.76953125 70.3984375 C-115.37988724 69.78696869 -115.99024323 69.17549988 -116.61909485 68.54550171 C-120.30560477 64.8170797 -122.1453821 62.92092888 -122.3125 57.6875 C-122.28413514 54.16458401 -122.06650675 53.10641081 -120.125 50 C-116.97508786 47.03537681 -114.55739912 46.46703693 -110.19287109 46.53295898 C-107.47726124 47.1113337 -106.32233562 48.09688265 -104.2890625 49.97265625 C-103.5976416 50.60768066 -102.9062207 51.24270508 -102.19384766 51.89697266 C-98.40888801 55.52524357 -94.68656536 59.20940488 -91 62.9375 C-89.83791016 64.10635742 -89.83791016 64.10635742 -88.65234375 65.29882812 C-86.76589243 67.1969242 -84.88183755 69.09733149 -83 71 C-80.17994573 69.71570457 -78.13200185 68.37962327 -75.95089722 66.18467712 C-75.3761264 65.61121048 -74.80135559 65.03774384 -74.20916748 64.44689941 C-73.59084045 63.81981079 -72.97251343 63.19272217 -72.33544922 62.54663086 C-71.34452774 61.55373802 -71.34452774 61.55373802 -70.33358765 60.54078674 C-68.15265439 58.353366 -65.97877948 56.15906234 -63.8046875 53.96484375 C-62.29112784 52.44501403 -60.7770521 50.92569809 -59.26248169 49.40687561 C-55.27729571 45.40838592 -51.29771464 41.4043678 -47.31970215 37.39874268 C-40.94616006 30.98207805 -34.56587995 24.57213027 -28.18237686 18.16537666 C-25.94975291 15.9225013 -23.72055687 13.67625936 -21.4916687 11.42967224 C-20.12981422 10.06099241 -18.76785118 8.69242059 -17.40576172 7.32397461 C-16.78338623 6.69486176 -16.16101074 6.0657489 -15.51977539 5.41757202 C-10.39482642 0.27897478 -7.21478244 -1.04489953 0 0 Z " fill="#000000" transform="translate(122,20)"/>
</svg>
