<?xml version="1.0" standalone="no"?>
<!DOCTYPE svg PUBLIC "-//W3C//DTD SVG 20010904//EN"
 "http://www.w3.org/TR/2001/REC-SVG-20010904/DTD/svg10.dtd">
<svg version="1.0" xmlns="http://www.w3.org/2000/svg"
 width="128.000000pt" height="128.000000pt" viewBox="0 0 128.000000 128.000000"
 preserveAspectRatio="xMidYMid meet">

<g transform="translate(0.000000,128.000000) scale(0.100000,-0.100000)"
fill="#000000" stroke="none">
<path d="M602 1267 c-6 -7 -12 -46 -14 -87 l-3 -74 -50 -11 c-82 -19 -147 -56
-211 -120 -68 -68 -120 -162 -130 -236 l-7 -49 -71 0 c-80 0 -116 -17 -116
-54 0 -36 19 -45 104 -48 l78 -3 17 -66 c42 -166 178 -300 341 -334 l55 -12 3
-73 c3 -81 12 -100 47 -100 35 0 44 19 47 100 l3 74 45 11 c165 43 316 203
336 356 4 27 12 49 18 50 6 0 39 0 74 -1 73 -2 112 17 112 54 0 36 -19 45
-109 48 l-83 3 -17 66 c-41 164 -175 297 -336 334 l-50 11 -3 74 c-3 81 -12
100 -47 100 -12 0 -27 -6 -33 -13z m-12 -332 c0 -55 3 -66 21 -76 16 -8 28 -8
45 0 22 10 24 17 24 76 0 63 1 65 26 65 41 0 141 -59 184 -108 47 -53 90 -136
90 -174 0 -27 -1 -28 -55 -28 -45 0 -56 -4 -66 -21 -8 -15 -8 -28 0 -45 8 -19
19 -23 63 -26 50 -3 53 -5 56 -31 4 -37 -37 -122 -87 -179 -41 -46 -144 -108
-180 -108 -19 0 -21 6 -21 65 0 59 -2 66 -24 76 -17 8 -29 8 -45 0 -18 -10
-21 -21 -21 -76 l0 -65 -31 0 c-45 0 -144 56 -189 108 -47 53 -90 136 -90 174
0 28 1 28 60 28 50 0 61 3 71 21 15 29 -3 68 -33 71 -13 0 -27 2 -33 3 -5 2
-22 3 -37 4 -24 1 -28 5 -28 29 0 40 45 124 93 177 48 51 139 105 180 105 27
0 27 -1 27 -65z"/>
<path d="M563 796 c-36 -30 -58 -92 -50 -145 5 -37 74 -150 112 -181 20 -16
32 -6 91 77 52 73 64 123 44 184 -20 59 -60 89 -120 89 -37 0 -55 -6 -77 -24z
m138 -83 c8 -42 -5 -53 -62 -53 -52 0 -65 11 -60 50 5 39 9 41 64 38 49 -3 52
-5 58 -35z"/>
</g>
</svg>
