<svg xmlns="http://www.w3.org/2000/svg" width="100%" height="auto" viewBox="0 0 128 128" version="1.1">
	<path d="M 14 12.706 C 8.522 14.709, 5.704 21.645, 8.344 26.629 C 9.181 28.208, 18.671 38.271, 29.433 48.990 C 40.195 59.710, 49 68.774, 49 69.132 C 49 69.490, 40.563 78.219, 30.250 88.531 C 19.937 98.842, 10.715 108.453, 9.757 109.889 C 7.006 114.008, 7.528 117.728, 11.400 121.600 C 14.987 125.187, 18.362 125.896, 22.316 123.894 C 23.517 123.285, 33.388 113.952, 44.250 103.153 L 64 83.519 83.750 103.153 C 94.612 113.952, 104.483 123.285, 105.684 123.894 C 109.638 125.896, 113.013 125.187, 116.600 121.600 C 120.897 117.303, 121.033 113.688, 117.097 108.400 C 115.501 106.255, 106.276 96.649, 96.597 87.053 C 86.919 77.457, 79 69.352, 79 69.043 C 79 68.734, 87.805 59.710, 98.567 48.990 C 109.329 38.271, 118.819 28.208, 119.656 26.629 C 123.654 19.082, 115.701 9.882, 107.783 12.892 C 106.332 13.444, 95.940 23.087, 84.691 34.321 L 64.239 54.746 44.369 34.878 C 22.681 13.192, 19.342 10.754, 14 12.706" stroke="none" fill="black" fill-rule="evenodd"/>
</svg>