<?xml version="1.0" standalone="no"?>
<!DOCTYPE svg PUBLIC "-//W3C//DTD SVG 20010904//EN"
 "http://www.w3.org/TR/2001/REC-SVG-20010904/DTD/svg10.dtd">
<svg version="1.0" xmlns="http://www.w3.org/2000/svg"
 width="128.000000pt" height="128.000000pt" viewBox="0 0 128.000000 128.000000"
 preserveAspectRatio="xMidYMid meet">

<g transform="translate(0.000000,128.000000) scale(0.100000,-0.100000)"
fill="#000000" stroke="none">
<path d="M600 1255 c-8 -10 -13 -55 -14 -131 l-1 -116 -60 -19 c-33 -11 -82
-35 -108 -55 -57 -41 -123 -138 -132 -194 -4 -22 -7 -40 -8 -41 -1 0 -56 -2
-122 -5 -66 -3 -126 -10 -132 -16 -7 -6 -13 -26 -13 -44 0 -55 29 -67 156 -63
l107 4 16 -50 c36 -110 126 -200 233 -232 66 -21 68 -25 68 -169 0 -101 10
-124 55 -124 45 0 55 23 55 124 0 143 3 150 63 170 106 34 204 137 231 243
l12 48 119 3 c93 2 123 6 137 19 24 22 23 58 -3 84 -19 19 -30 21 -136 18
l-116 -4 -16 50 c-36 108 -123 197 -231 233 l-55 19 -1 116 c-2 131 -8 147
-59 147 -18 0 -38 -7 -45 -15z m-10 -419 c0 -61 16 -86 55 -86 38 0 55 26 55
81 0 41 3 49 18 49 49 0 162 -113 162 -162 0 -15 -8 -18 -45 -18 -77 0 -104
-49 -57 -102 10 -13 30 -18 64 -18 l48 0 -15 -36 c-20 -49 -50 -84 -97 -116
-62 -42 -78 -38 -78 20 0 56 -12 72 -55 72 -44 0 -55 -16 -55 -78 0 -51 -1
-53 -22 -46 -59 18 -105 53 -142 108 -40 60 -36 76 21 76 52 0 83 20 83 55 0
40 -24 59 -84 65 l-55 5 18 40 c23 51 74 103 126 126 22 10 43 19 48 19 4 0 7
-24 7 -54z"/>
</g>
</svg>
