<?xml version="1.0" standalone="no"?>
<!DOCTYPE svg PUBLIC "-//W3C//DTD SVG 20010904//EN"
 "http://www.w3.org/TR/2001/REC-SVG-20010904/DTD/svg10.dtd">
<svg version="1.0" xmlns="http://www.w3.org/2000/svg"
 width="128.000000pt" height="128.000000pt" viewBox="0 0 128.000000 128.000000"
 preserveAspectRatio="xMidYMid meet">

<g transform="translate(0.000000,128.000000) scale(0.100000,-0.100000)"
fill="#E4E4FF" stroke="none">
<path d="M670 1254 c-89 -23 -161 -65 -225 -129 -152 -152 -187 -370 -90 -567
l32 -67 -189 -187 c-181 -179 -189 -188 -186 -222 4 -46 44 -78 84 -68 18 5
97 75 214 191 l185 183 40 -26 c184 -118 441 -87 600 73 193 193 193 497 -1
691 -122 122 -300 172 -464 128z m274 -173 c73 -35 122 -88 158 -167 18 -39
23 -67 23 -134 0 -76 -3 -92 -33 -152 -37 -76 -82 -120 -162 -157 -46 -22 -69
-26 -145 -26 -110 0 -161 21 -240 100 -113 113 -126 294 -32 431 94 136 277
181 431 105z"/>
<path d="M816 1004 c-12 -11 -16 -35 -16 -85 0 -92 10 -109 60 -109 50 0 60
17 60 109 0 79 -13 101 -60 101 -16 0 -36 -7 -44 -16z"/>
<path d="M620 765 c0 -25 29 -63 64 -84 44 -27 88 -34 135 -21 47 12 111 71
111 100 0 19 -8 20 -155 20 -133 0 -155 -2 -155 -15z"/>
<path d="M703 600 c-33 -20 -53 -48 -53 -74 0 -14 18 -16 125 -16 113 0 125 2
125 18 0 72 -123 118 -197 72z"/>
</g>
</svg>
