<?xml version="1.0" standalone="no"?>
<!DOCTYPE svg PUBLIC "-//W3C//DTD SVG 20010904//EN"
 "http://www.w3.org/TR/2001/REC-SVG-20010904/DTD/svg10.dtd">
<svg version="1.0" xmlns="http://www.w3.org/2000/svg"
 width="128.000000pt" height="128.000000pt" viewBox="0 0 128.000000 128.000000"
 preserveAspectRatio="xMidYMid meet">

<g transform="translate(0.000000,128.000000) scale(0.100000,-0.100000)"
fill="#000000" stroke="none">
<path d="M548 1174 c-21 -11 -28 -22 -28 -43 0 -33 -10 -43 -67 -61 -40 -12
-43 -12 -60 9 -15 18 -24 21 -46 16 -40 -10 -134 -99 -147 -140 -10 -30 -9
-38 11 -64 21 -28 21 -32 8 -68 -13 -33 -19 -38 -52 -41 -25 -2 -43 -11 -58
-30 -18 -24 -20 -37 -17 -119 1 -51 8 -97 14 -103 6 -6 24 -13 40 -16 48 -8
53 -11 64 -56 10 -36 9 -48 -5 -75 -25 -46 -13 -79 50 -139 66 -63 95 -72 134
-44 26 18 32 19 67 6 35 -11 39 -17 42 -50 4 -50 41 -68 142 -68 101 0 138 18
142 68 3 33 7 39 42 50 35 13 41 12 68 -7 40 -29 68 -19 133 44 63 61 75 95
50 140 -14 27 -15 39 -5 75 11 45 16 48 64 56 16 3 34 10 40 16 6 6 13 52 14
103 3 82 1 95 -17 119 -15 19 -33 28 -58 30 -33 3 -39 8 -52 41 -13 36 -13 40
8 68 20 26 21 34 11 64 -13 41 -107 130 -147 140 -22 5 -31 2 -46 -16 -17 -21
-20 -21 -60 -9 -57 18 -65 26 -69 63 -2 22 -11 35 -28 44 -35 17 -149 16 -182
-3z m197 -303 c91 -41 145 -127 145 -231 0 -105 -53 -190 -145 -231 -50 -23
-152 -25 -203 -4 -49 21 -110 80 -133 130 -23 50 -25 151 -4 203 21 49 80 110
130 133 53 25 156 25 210 0z"/>
</g>
</svg>
