<?xml version="1.0" standalone="no"?>
<!DOCTYPE svg PUBLIC "-//W3C//DTD SVG 20010904//EN"
 "http://www.w3.org/TR/2001/REC-SVG-20010904/DTD/svg10.dtd">
<svg version="1.0" xmlns="http://www.w3.org/2000/svg"
 width="256.000000pt" height="256.000000pt" viewBox="0 0 256.000000 256.000000"
 preserveAspectRatio="xMidYMid meet">

<g transform="translate(0.000000,256.000000) scale(0.100000,-0.100000)"
fill="#000000" stroke="none">
<path d="M415 2171 c-52 -23 -102 -81 -111 -126 -19 -104 19 -188 106 -232
l44 -23 876 0 876 0 52 26 c144 72 144 276 0 348 l-52 26 -875 0 c-826 0 -878
-1 -916 -19z"/>
<path d="M415 1471 c-80 -36 -120 -111 -113 -212 5 -73 43 -132 107 -166 l44
-23 869 0 c958 0 908 -3 976 63 59 57 76 171 37 247 -19 36 -65 77 -107 94
-33 14 -143 16 -905 16 -821 0 -870 -1 -908 -19z"/>
<path d="M415 751 c-52 -23 -102 -81 -111 -126 -19 -104 19 -188 106 -233 l44
-22 876 0 876 0 52 26 c144 72 144 276 0 348 l-52 26 -875 0 c-826 0 -878 -1
-916 -19z"/>
</g>
</svg>
