<?xml version="1.0" standalone="no"?>
<!DOCTYPE svg PUBLIC "-//W3C//DTD SVG 20010904//EN"
 "http://www.w3.org/TR/2001/REC-SVG-20010904/DTD/svg10.dtd">
<svg version="1.0" xmlns="http://www.w3.org/2000/svg"
 width="256.000000pt" height="256.000000pt" viewBox="0 0 256.000000 256.000000"
 preserveAspectRatio="xMidYMid meet">

<g transform="translate(0.000000,256.000000) scale(0.100000,-0.100000)"
fill="#E4E4FF" stroke="none">
<path d="M1255 2543 c-11 -2 -30 -6 -42 -9 -33 -6 -91 -61 -114 -105 -18 -36
-19 -63 -19 -494 l0 -455 -470 0 c-524 0 -509 2 -572 -69 -37 -40 -38 -43 -38
-122 0 -85 11 -118 52 -156 56 -52 62 -53 563 -53 l465 0 0 -467 c0 -525 -1
-515 74 -581 36 -31 40 -32 126 -32 86 0 90 1 126 32 75 66 74 56 74 580 l0
467 468 3 469 3 39 27 c129 90 112 284 -31 349 -37 17 -76 19 -492 19 l-453 0
0 455 c0 431 -1 458 -19 494 -24 45 -82 99 -116 106 -50 10 -70 12 -90 8z"/>
</g>
</svg>
